PathFileType	3	(X/Y/Z)	C:\Users\koon_\Desktop\
DataRate	CameraRate	NumFrames	NumMarkers	Units	OrigDataRate	OrigDataStartFrame	OrigNumFrames
100.0	100.0	14	27	mm	100.0	1046	2788	
Frame#	Time	get:LFHD			get:RFHD			get:LBHD			get:RBHD			get:C7			get:T10			get:CLAV			get:STRN			get:RBAK			get:LSHO			get:LUPA			get:LELB			get:LFRA			get:LWRA			get:LWRB			get:LFIN			get:RSHO			get:RUPA			get:RELB			get:RFRA			get:RWRA			get:RWRB			get:RFIN			get:LASI			get:RASI			get:LPSI			get:RPSI			
		X1	Y1	Z1	X2	Y2	Z2	X3	Y3	Z3	X4	Y4	Z4	X5	Y5	Z5	X6	Y6	Z6	X7	Y7	Z7	X8	Y8	Z8	X9	Y9	Z9	X10	Y10	Z10	X11	Y11	Z11	X12	Y12	Z12	X13	Y13	Z13	X14	Y14	Z14	X15	Y15	Z15	X16	Y16	Z16	X17	Y17	Z17	X18	Y18	Z18	X19	Y19	Z19	X20	Y20	Z20	X21	Y21	Z21	X22	Y22	Z22	X23	Y23	Z23	X24	Y24	Z24	X25	Y25	Z25	X26	Y26	Z26	X27	Y27	Z27	
1046	10.45	386.08591	1422.1311	-86.333008	265.17413	1502.4852	-62.249916	360.96909	1426.6112	-222.68942	232.73875	1503.9309	-192.18015	169.93315	1303.0586	-230.08438	65.009727	1119.6237	-263.10559	178.12424	1197.4209	-43.899918	110.77346	1058.3132	-2.5207546	51.1539	1293.0431	-222.20122	323.93832	1211.7516	-198.83942	310.89795	1000.3954	-137.94106	310.42755	880.23486	-183.58325	297.01315	838.05505	-93.179863	225.02231	686.30072	-41.948513	289.12372	664.77814	-75.452034	246.19264	601.96381	-37.361855	86.951073	1362.9531	-88.021408	-18.02997	1277.7994	-37.744385	-148.1057	1096.9781	-64.217682	-124.58933	935.86859	-19.919312	-138.55605	848.65717	-18.056543	-206.43332	877.79889	-16.213036	-183.78513	790.48444	5.9063845	173.0047	893.55212	-93.252342	-108.50486	950.20502	-48.61166	55.812775	930.6933	-263.47031	-30.063761	941.13422	-250.93994
1047	10.46	390.8028	1418.1285	-84.386337	270.90424	1499.8198	-59.762512	365.54791	1423.5924	-220.64577	237.99434	1502.3334	-189.76741	172.77821	1302.4266	-228.12727	65.729721	1120.3325	-261.8483	180.60336	1195.6672	-42.611572	111.95567	1057.0251	-1.7123694	53.88401	1293.7511	-219.89854	325.86078	1209.389	-198.02303	311.58939	997.84637	-138.13127	310.34457	877.87244	-184.21049	296.97629	835.49719	-93.928413	224.26161	684.08905	-42.652893	288.11691	662.22955	-76.587013	245.00844	599.5899	-38.431	90.977859	1362.4443	-85.637131	-14.601286	1278.0576	-35.138119	-146.62354	1098.6866	-62.249607	-124.54727	936.89252	-19.052702	-139.42665	850.13293	-17.616158	-207.0424	879.87933	-15.552905	-185.16226	792.20868	6.0594721	172.90825	893.08295	-93.744492	-107.93743	950.80688	-47.585114	55.125286	931.4538	-263.47055	-30.59116	942.13306	-250.6777
1048	10.47	395.52939	1414.1073	-82.544197	276.51831	1497.0695	-57.267998	369.92343	1420.5298	-218.78363	243.38287	1500.5715	-187.1525	175.58334	1301.8044	-226.35503	66.454544	1121.1437	-260.80835	183.00734	1193.8776	-41.434029	113.21712	1055.714	-0.93264949	56.648319	1294.3247	-217.64023	327.72568	1206.9967	-197.29024	312.18433	995.35461	-138.28087	310.2363	875.55237	-184.9091	296.84067	832.96954	-94.632683	223.43694	681.97107	-43.464169	286.88281	659.69543	-77.857422	243.78423	597.27405	-39.449173	95.141228	1361.8004	-83.062958	-11.186862	1278.2462	-32.603027	-145.10109	1100.365	-60.293407	-124.57061	937.72205	-17.814774	-140.37895	851.54584	-17.213888	-207.65788	881.97015	-14.617357	-186.61046	793.97339	6.3291526	172.86502	892.59381	-94.175507	-107.54343	951.41321	-46.667385	54.484455	932.08392	-263.21729	-31.116524	943.26105	-250.49898
1049	10.48	400.02261	1410.0475	-80.830421	282.09491	1494.2616	-54.83374	374.22754	1417.4698	-216.9619	248.69391	1498.7856	-184.71133	178.36444	1301.0977	-224.62331	67.25856	1121.7764	-259.56146	185.43062	1192.0945	-40.234917	114.44755	1054.4493	-0.24337542	59.49612	1294.767	-215.61317	329.57861	1204.6198	-196.59389	312.77631	992.85461	-138.47278	309.48233	873.11566	-185.6853	296.62775	830.34857	-95.514236	222.49641	679.86145	-44.180683	285.55026	657.15918	-79.109161	242.45349	595.00397	-40.44389	99.188988	1361.0803	-80.478996	-7.7697763	1278.3944	-30.065781	-143.64586	1102.0177	-58.239399	-124.43066	938.96552	-17.210285	-141.29189	852.96875	-16.578129	-208.27461	884.0766	-13.704785	-188.00931	795.80457	6.8110933	172.7225	892.15216	-94.487732	-107.06924	951.96869	-45.674599	53.973003	932.85498	-263.16809	-31.648491	944.08521	-249.66899
1050	10.49	404.45331	1406.0054	-79.191719	287.48459	1491.3877	-52.551636	378.49741	1414.3943	-215.20761	253.92976	1496.9423	-182.36447	181.12436	1300.2635	-222.74141	68.001862	1122.3489	-258.2077	187.82042	1190.2312	-39.179825	115.59663	1053.2322	0.49606192	62.215034	1295.2642	-213.48665	331.39063	1202.1887	-195.89372	313.28195	990.30823	-138.61731	309.01001	870.82025	-186.32628	296.27216	827.77502	-96.277771	221.6909	677.39282	-45.34317	284.1347	654.63239	-80.438408	240.99388	592.66553	-41.568092	103.20179	1360.3346	-78.053551	-4.330029	1278.5104	-27.512918	-142.04015	1103.6648	-56.024269	-124.37598	940.02692	-16.270815	-142.19009	854.48077	-15.926942	-208.84807	886.23236	-12.636064	-189.45525	797.64667	7.4123116	172.51987	891.69232	-94.772102	-106.66338	952.47906	-44.717953	53.386726	933.53351	-262.89291	-32.129841	945.15289	-249.22618
1051	10.5	408.74805	1402.0117	-77.576927	292.75992	1488.5277	-50.376293	382.69037	1411.3706	-213.5901	259.03723	1495.0044	-179.9498	183.85548	1299.4739	-221.13005	68.770622	1123.0779	-257.19745	190.18306	1188.4036	-37.875568	116.70878	1051.9016	1.2599924	64.798309	1295.8313	-211.13815	333.10748	1199.7297	-195.21083	313.71262	987.75653	-138.80806	308.54071	868.53717	-186.99146	295.84555	825.23785	-97.065643	220.60999	675.15332	-46.252861	282.59906	652.11414	-81.674683	239.38445	590.33905	-42.6376	107.17442	1359.5603	-75.791229	-0.91526157	1278.5863	-25.040049	-140.43697	1105.2861	-53.876419	-124.42814	940.95099	-15.052258	-143.0992	855.98486	-15.227464	-209.36227	888.37708	-11.457941	-190.8299	799.48431	8.103754	172.24091	891.22473	-95.049873	-106.38246	952.87878	-43.843075	52.797981	934.25543	-262.58743	-32.601387	946.31244	-248.83344
1052	10.51	412.99097	1398.0311	-76.106865	297.94769	1485.6323	-48.31321	386.85901	1408.3064	-211.91412	264.05957	1493.0891	-177.9003	186.5726	1298.5978	-219.39468	69.516457	1123.5347	-255.84099	192.47026	1186.5214	-36.832706	117.87621	1050.5758	1.9840926	67.515579	1296.3407	-209.25821	334.86884	1197.226	-194.61005	314.11615	985.17456	-139.05391	307.88608	866.19031	-187.68779	295.33548	822.64349	-97.827118	219.37193	672.93958	-47.098949	280.98746	649.53778	-83.058205	237.79729	587.95868	-43.877644	111.19	1358.72	-73.393105	2.423945	1278.6228	-22.547283	-138.93393	1106.9662	-51.771404	-124.27273	943.50311	-13.617272	-143.97684	857.534	-14.438251	-209.89035	890.6145	-10.149837	-192.18346	801.42059	8.8552437	172.00055	890.73615	-95.269897	-107.45149	950.4126	-42.92704	52.173058	934.82159	-262.16846	-33.115047	947.27039	-248.52272
1053	10.52	417.21228	1394.123	-74.598892	302.99063	1482.7277	-46.318943	390.90918	1405.2174	-210.40971	269.03009	1491.0504	-175.78111	189.27016	1297.7495	-217.7272	70.337395	1124.0262	-254.49341	194.71587	1184.6165	-35.729362	119.01497	1049.2295	2.8215659	70.243996	1296.5549	-206.87424	336.53488	1194.6754	-194.10892	314.37631	982.53168	-139.34595	306.99371	863.79266	-188.33942	294.78513	820.06073	-98.609657	218.06079	670.68933	-48.029427	279.35428	647.0271	-84.338928	236.11917	585.59363	-44.938118	115.1413	1357.8494	-71.173637	5.7977872	1278.678	-20.145298	-137.57999	1109.486	-50.133057	-123.19062	951.92505	-10.252143	-144.70291	859.19623	-13.686667	-209.9286	893.26349	-8.71348	-193.3755	803.49353	9.7846231	171.77997	890.21228	-95.454475	-109.59633	944.50836	-44.884483	51.63295	935.48584	-261.99817	-33.537579	948.27484	-247.82396
1054	10.53	421.28842	1390.2072	-73.226921	307.95541	1479.798	-44.416702	394.87589	1402.1376	-208.97115	273.87231	1488.9403	-173.74876	191.95665	1296.8135	-216.18925	71.134506	1124.556	-253.36519	197.0224	1182.673	-34.660442	120.1903	1047.8236	3.591466	72.9823	1296.806	-204.6561	338.22278	1192.1259	-193.53285	314.61099	979.98517	-139.6563	305.99774	861.4776	-189.03775	294.13651	817.47504	-99.425438	216.79668	668.42554	-48.879105	277.69498	644.52301	-85.743065	234.46931	583.20978	-46.237972	119.1796	1356.8243	-68.784462	9.1973038	1278.891	-17.840361	-136.74825	1112.499	-49.198025	-123.94672	954.62219	-9.2997398	-145.20634	861.17737	-13.071764	-209.66594	896.60742	-7.0404677	-194.43655	806.10455	10.741853	171.5191	889.63562	-95.54155	-109.15151	945.4801	-42.523594	51.026524	936.03003	-261.45847	-34.290043	948.12445	-245.44839
1055	10.54	425.30402	1386.3336	-71.959137	312.83798	1476.8691	-42.587498	398.8103	1398.9465	-207.53641	278.61499	1486.7512	-171.74826	194.67142	1295.7505	-214.53139	71.883987	1125.0699	-252.21056	199.24553	1180.6923	-33.620541	121.32985	1046.4363	4.3718753	75.650589	1297.1929	-202.94038	339.83163	1189.5455	-192.94092	314.79721	977.44891	-140.00749	305.13214	859.1781	-189.69829	293.56143	814.88342	-100.25124	215.49733	666.20569	-49.758499	276.03244	642.03119	-87.003822	232.78009	580.87775	-47.374031	123.20177	1355.809	-66.5756	12.55247	1279.0719	-15.496979	-135.79161	1114.6332	-47.745159	-123.40387	955.16736	-9.0508022	-145.57286	863.25092	-12.060053	-209.61664	899.30359	-5.4160805	-195.14894	808.56085	11.669285	171.22856	889.06342	-95.614334	-108.91379	945.70929	-41.431686	50.477905	936.65594	-261.22079	-34.790203	948.93127	-244.80925
1056	10.55	429.29935	1382.405	-70.621735	317.64612	1473.8893	-40.863556	402.61374	1395.7429	-206.22037	283.27167	1484.4982	-169.78725	197.22151	1294.6659	-212.99028	72.657249	1125.5311	-250.94292	201.42041	1178.7241	-32.655361	122.33843	1045.0205	5.3190656	78.315376	1297.304	-200.739	341.37921	1186.9725	-192.47551	314.95898	974.89166	-140.30269	304.24615	856.85406	-190.42747	292.89877	812.34143	-101.01019	214.15201	663.92432	-50.649635	274.31335	639.56653	-88.340118	231.03638	578.51904	-48.651287	127.18839	1354.8468	-64.516159	16.004755	1279.2355	-13.106668	-134.18439	1115.9883	-45.350655	-122.86245	957.01904	-8.0254107	-146.09444	864.90594	-11.014792	-209.84099	901.38239	-4.0893507	-195.8261	810.46368	12.873161	170.95291	888.49164	-95.698166	-108.53139	945.96027	-40.457024	50.002083	937.18085	-260.90698	-35.129944	949.94562	-244.60742
1057	10.56	433.07825	1378.4448	-69.507347	322.40073	1470.8188	-39.26609	406.33093	1392.5145	-204.92081	287.91525	1482.235	-168.19359	199.84169	1293.6243	-211.60985	73.500237	1125.97	-249.81435	203.51691	1176.7988	-31.672306	123.50563	1043.7782	6.1799865	81.033264	1297.3491	-198.47891	342.88449	1184.3729	-191.99411	315.09741	972.33728	-140.56419	303.33313	854.55353	-191.02541	292.23077	809.80109	-101.74998	212.75713	661.62195	-51.618008	272.58871	637.052	-89.572479	229.28386	576.1355	-49.854153	131.13663	1353.8528	-62.493908	19.374685	1279.3507	-10.900063	-132.26216	1117.126	-42.812878	-122.68652	958.30798	-6.596005	-146.62102	866.39001	-10.051275	-210.03627	903.41028	-2.6524544	-196.83249	812.53381	14.198102	170.67174	887.95789	-95.754166	-108.24525	946.59534	-39.235905	49.457062	937.60974	-260.51474	-35.559753	950.78973	-244.0905
1058	10.57	436.84711	1374.462	-68.362572	326.99557	1467.7494	-37.709679	410.04651	1389.1812	-203.67181	292.49524	1479.8406	-166.33887	202.39067	1292.4266	-210.12987	74.184547	1126.3167	-248.45703	205.64841	1174.9336	-30.689245	124.33528	1042.5348	7.0314078	83.719345	1297.7023	-197.30922	344.36139	1181.7152	-191.50948	315.24557	969.76788	-140.75729	302.46454	852.25983	-191.60925	291.49707	807.21857	-102.39146	211.42685	659.30035	-52.386093	270.90561	634.56848	-90.86071	227.45418	573.68518	-51.105141	134.95029	1352.7819	-60.430447	22.746986	1279.4369	-8.6455889	-130.57442	1118.9951	-40.633949	-122.20399	958.99365	-4.7482414	-147.1032	868.06946	-8.9915848	-210.16933	905.4754	-1.0985922	-197.53712	814.5589	15.376522	170.47983	887.43451	-95.722389	-107.82708	947.12225	-37.915737	48.928158	938.07092	-259.927	-35.940708	951.50201	-243.14413
1059	10.58	440.62204	1370.4297	-67.246811	331.66489	1464.6183	-36.195335	413.73953	1385.8406	-202.48712	297.0701	1477.4417	-164.77617	204.90007	1291.2803	-208.84779	74.905975	1126.7451	-247.37927	207.67209	1173.1436	-29.684399	125.17506	1041.4088	7.8140097	86.255569	1297.6244	-195.1861	345.58859	1179.0121	-191.18195	315.36887	967.10815	-140.93616	301.53116	849.85608	-192.14378	290.7193	804.5426	-103.12564	210.03661	656.95142	-53.183445	269.18567	631.99988	-92.016411	225.61559	571.23407	-52.245781	138.6622	1351.7469	-58.585186	25.973417	1279.4612	-6.4500108	-128.9716	1120.7719	-38.488483	-121.58584	960.36713	-3.4247334	-147.50726	869.72302	-7.8575172	-210.18793	907.61542	0.61810398	-198.22014	816.53461	16.69281	170.24582	886.91339	-95.743164	-107.41388	947.6344	-36.73975	48.40955	938.47632	-259.37308	-36.338917	952.23383	-242.35721
